{"title":"ERIC CLAPTON-Masterpieces(dvdripmp4)","uid":7749991,"size":2030239250,"categoryP":"video","categoryS":"music_videos","magnet":"?xt=urn:btih:ee2c9ce361f585c80669a8996bd233d1cbcb6184&amp;dn=ERIC+CLAPTON-Masterpieces%28dvdripmp4%29&amp;tr=udp%3A%2F%2Ftracker.openbittorrent.com%3A80&amp;tr=udp%3A%2F%2Fopen.demonii.com%3A1337&amp;tr=udp%3A%2F%2Ftracker.coppersurfer.tk%3A6969&amp;tr=udp%3A%2F%2Fexodus.desync.com%3A6969","seeders":2,"leechers":0,"uploader":"russell887","files":2,"time":1350874304,"description":"This is the ultimate critical review of Cream, on record, on film, and live on stage. Drawing on rare film and television archive material, this independent and highly authoritative review revisits every single Cream album and critically reassesses the work of this legendary band from the glorious debut album right through to the demise of the band. \nA leading team of music critics, musicologists and working musicians consider vintage performances by Cream and trace the secrets of the bands success. This hard hitting powerful film makes no concessions to labels, artists or management and pulls no punches when it comes to deciding what made the music work and, sometimes, why it didn't. \n\nChapter Listing: \n\nDisc #1 -- Eric Clapton: Masterpieces: Inside Cream\n1.\nPete Brown &amp; Early Cream [16:07]\n2.\nI Feel Cream [13:01]\n3.\nJack Bruce [13:21]\n4.\nPolitician [9:53]\n5.\nGoodbye [2:56]\n6.\nThe End of Cream [5:59]\nDisc #2 -- Eric Clapton: Masterpieces: Music in Review\n1.\nThe Yardbird &amp; Bluesbreakers [12:18]\n2.\nCream [13:51]\n3.\nDerek and the Dominoes [6:41]\n4.\nSlowhand [7:09]\n5.\nWonderful Tonight [12:15]\n6.\nTears in Heaven [8:15]\n\nINFO:\nFormat : MPEG-4\nFormat profile : Base Media\nCodec ID : isom\nOverall bit rate mode : Variable\nOverall bit rate : 2 243 Kbps\nWriting application : Lavf52.104.0\n\nVideo\nID : 1\nFormat : MPEG-4 Visual\nFormat profile : Simple@L3\nFormat settings, BVOP : No\nFormat settings, QPel : No\nFormat settings, GMC : No warppoints\nFormat settings, Matrix : Default (H.263)\nCodec ID : 20 \nBit rate : 2 070 Kbps\nWidth : 720 pixels\nHeight : 480 pixels\nDisplay aspect ratio : 16:9\nOriginal display aspect ratio : 16:9\nFrame rate mode : Constant\nFrame rate : 29.970 fps\nStandard : NTSC\nColor space : YUV\nChroma subsampling : 4:2:0\nBit depth : 8 bits\nScan type : Progressive\nCompression mode : Lossy\nBits/(Pixel*Frame) : 0.200\nStream size : 908 MiB (92%)\nWriting library : XviD 1.2.1 (UTC 2008-12-04)\n\nAudio\nID : 2\nFormat : AAC\nFormat/Info : Advanced Audio Codec\nFormat profile : LC\nCodec ID : 40 \nBit rate mode : Variable\nBit rate : 167 Kbps\nChannel(s) : 6 channels\nChannel positions : Front: L C R, Side: L R, LFE\nSampling rate : 48.0 KHz\nCompression mode : Lossy\nStream size : 73.4 MiB (7%)\n\n\nSIZE: 1.89GB\n","torrent":{"xt":"urn:btih:ee2c9ce361f585c80669a8996bd233d1cbcb6184","amp;dn":"ERIC+CLAPTON-Masterpieces%28dvdripmp4%29","amp;tr":["udp%3A%2F%2Ftracker.openbittorrent.com%3A80","udp%3A%2F%2Fopen.demonii.com%3A1337","udp%3A%2F%2Ftracker.coppersurfer.tk%3A6969","udp%3A%2F%2Fexodus.desync.com%3A6969"],"infoHash":"ee2c9ce361f585c80669a8996bd233d1cbcb6184","infoHashBuffer":{"type":"Buffer","data":[238,44,156,227,97,245,133,200,6,105,168,153,107,210,51,209,203,203,97,132]},"announce":[],"urlList":[]}}